<?xml version="1.0" encoding="UTF-8"?>
<svg id="_레이어_2" data-name="레이어 2" xmlns="http://www.w3.org/2000/svg" viewBox="0 0 82 24">
  <defs>
    <style>
      .cls-1 {
        fill: none;
      }

      .cls-2 {
        fill: #6d6e71;
      }

      .cls-3 {
        fill: #fff;
      }

      .cls-4 {
        fill: #af0030;
      }
    </style>
  </defs>
  <g id="_레이어_1-2" data-name="레이어 1">
    <g id="_그룹_2" data-name="그룹 2">
      <rect id="_사각형_2" data-name="사각형 2" class="cls-1" width="82" height="24"/>
      <path id="_패스_8" data-name="패스 8" class="cls-4" d="M11.99,23.04c6.1,0,11.04-4.95,11.04-11.05,0-6.1-4.95-11.04-11.05-11.04C5.87.96.93,5.91.93,12c0,6.1,4.95,11.04,11.05,11.04h0"/>
      <path id="_패스_9" data-name="패스 9" class="cls-3" d="M11.54,7.15v9.69h3.08v-.87h-2.19V7.15h-.89Z"/>
      <path id="_패스_10" data-name="패스 10" class="cls-3" d="M8.46,9.8c.73,0,1.33-.59,1.33-1.32,0-.73-.59-1.33-1.32-1.33-.73,0-1.33.59-1.33,1.32h0c0,.73.59,1.33,1.32,1.33"/>
      <path id="_패스_11" data-name="패스 11" class="cls-3" d="M12.43,2.76c-.12,0-.33-.01-.44-.01-5.11,0-9.25,4.14-9.25,9.25,0,5.11,4.14,9.25,9.25,9.25,5.11,0,9.25-4.14,9.25-9.25h0v-.41h-6.61v.85h5.73v.13c-.32,4.62-4.32,8.11-8.94,7.79-4.62-.32-8.11-4.32-7.79-8.94.3-4.4,3.96-7.81,8.36-7.81.1,0,.33,0,.44,0v-.86Z"/>
      <path id="_패스_12" data-name="패스 12" class="cls-2" d="M31.35,4.68h-3.32v14.38h10.2v-2.8h-6.88V4.68ZM45.54,13.58h2.7v2.51c-.77.25-1.58.38-2.4.38-2.99,0-3.98-1.52-3.98-4.6s.95-4.67,3.94-4.67c1.32-.11,2.6.46,3.39,1.52l2.06-1.9c-1.26-1.8-3.46-2.35-5.53-2.35-4.65,0-7.09,2.54-7.09,7.38s2.21,7.43,7.07,7.43c1.96.06,3.9-.42,5.6-1.4v-6.98h-5.76v2.68Z"/>
      <path id="_패스_13" data-name="패스 13" class="cls-2" d="M77.51,4.66V1.04h-2.67v3.62h-3.53v2.55h3.53v3.58h2.67v-3.58h3.56v-2.55h-3.56Z"/>
      <path id="_패스_14" data-name="패스 14" class="cls-2" d="M65.76,4.68v8.31c0,2.3-1.14,3.42-3.07,3.42s-3.07-1.13-3.07-3.42V4.68h-3.26v8.36c0,4.53,2.41,6.24,6.21,6.24h.23c3.8,0,6.21-1.7,6.21-6.24V4.68h-3.26Z"/>
    </g>
  </g>
</svg>